<svg width="20" height="20" viewBox="0 0 20 20" fill="none" xmlns="http://www.w3.org/2000/svg">
    <path fill-rule="evenodd" clip-rule="evenodd" 
    d="
        M 16.3451 15.2003
        C 16.6377 15.4915 16.4752 15.7720 16.1934 16.0632
        C 16.1000 16.1279 16.0958 16.1818 16.0525 16.2249
        C 15.7707 16.4730 15.4456 16.6240 15.1854 16.3652
        L 11.6848 12.8815
        C 10.4709 13.8198 8.97529 14.3267 7.44714 14.3267
        C 3.62134 14.3267 0.50000 11.2314 0.50000 7.41337
        C 0.50000 3.60616 3.61050 0.50000 7.44714 0.50000
        C 11.2729 0.50000 14.3943 3.59538 14.3943 7.41337
        C 14.3943 8.98802 13.8524 10.5087 12.8661 11.7383
        L 16.3451 15.2003
        Z
        M 2.13647 7.40260
        C 2.13647 10.3146 4.52083 12.6766 7.43624 12.6766
        C 10.3517 12.6766 12.7360 10.3146 12.7360 7.40260
        C 12.7360 4.49058 10.3517 2.12860 7.43624 2.12860
        C 4.50999 2.12860 2.13647 4.50136 2.13647 7.40260
        Z
    "
    fill="white"></path>
</svg>